<svg id="Layer_1" data-name="Layer 1" xmlns="http://www.w3.org/2000/svg" viewBox="0 0 565 565"><defs><style>.cls-1{fill:#5bc8ac;}.cls-2{fill:#e8644e;}.cls-3,.cls-4{fill:#242b50;}.cls-4{stroke:#e8644e;stroke-miterlimit:10;stroke-width:18px;}</style></defs><rect class="cls-1" x="6.5" y="6.5" width="552" height="552" rx="28.91"/><path class="cls-2" d="M529.59,13A22.43,22.43,0,0,1,552,35.41V529.59A22.43,22.43,0,0,1,529.59,552H35.41A22.43,22.43,0,0,1,13,529.59V35.41A22.43,22.43,0,0,1,35.41,13H529.59m0-13H35.41A35.41,35.41,0,0,0,0,35.41V529.59A35.41,35.41,0,0,0,35.41,565H529.59A35.41,35.41,0,0,0,565,529.59V35.41A35.41,35.41,0,0,0,529.59,0Z"/><rect class="cls-3" x="13" y="46" width="506" height="506" rx="21.79"/><rect class="cls-4" x="129.42" y="213.63" width="61.36" height="61.36" rx="20.36"/><rect class="cls-4" x="129.42" y="317.63" width="61.36" height="61.36" rx="20.36"/><polygon class="cls-4" points="265.7 401.25 219.69 401.25 265.7 194.75 311.73 194.75 265.7 401.25"/><polygon class="cls-4" points="356.56 401.25 310.55 401.25 356.56 194.75 402.58 194.75 356.56 401.25"/></svg>